<svg width="auto" height="auto" viewBox="0 0 1252 329" fill="none" xmlns="http://www.w3.org/2000/svg">
<path d="M627.294 256.487C620.029 256.585 612.832 255.077 606.213 252.071C600.016 249.22 594.493 245.087 590.009 239.943C585.439 234.643 581.889 228.542 579.536 221.949C577.021 215.02 575.749 207.702 575.78 200.33C575.673 190.589 577.601 180.934 581.445 171.985C584.987 163.728 589.96 156.161 596.134 149.638C602 143.46 608.999 138.471 616.75 134.941C624.182 131.489 632.275 129.69 640.466 129.667C645.611 129.566 650.736 130.346 655.615 131.975C659.415 133.266 663.042 135.015 666.418 137.183C669.587 139.303 672.466 141.829 674.981 144.696L684.679 89.5251C684.77 89.0259 685.03 88.5738 685.419 88.2481C685.808 87.9222 686.296 87.744 686.803 87.7434H697.64C699.9 87.7434 702.133 88.2385 704.182 89.1945C706.231 90.1505 708.045 91.5432 709.497 93.2758C710.952 95.0085 712.006 97.0389 712.593 99.2236C713.176 101.408 713.278 103.695 712.883 105.922L686.89 253.389C686.803 253.888 686.542 254.34 686.153 254.665C685.767 254.991 685.277 255.168 684.77 255.168H676.247C672.623 255.169 669.097 253.985 666.207 251.796C663.316 249.608 661.218 246.534 660.232 243.043C657.311 245.606 654.131 247.86 650.745 249.768C647.328 251.5 643.811 253.018 640.206 254.316C636.066 255.798 631.694 256.534 627.297 256.49L627.294 256.487ZM635.069 227.35C639.534 227.353 643.951 226.434 648.043 224.65C652.186 222.87 655.911 220.245 658.98 216.941C662.199 213.437 664.744 209.369 666.486 204.941C668.453 199.858 669.415 194.44 669.319 188.99C669.502 185.122 668.908 181.259 667.571 177.625C666.237 173.991 664.188 170.661 661.547 167.832C658.818 165.133 655.558 163.032 651.972 161.659C648.389 160.286 644.561 159.672 640.726 159.856C636.283 159.847 631.886 160.768 627.815 162.557C623.686 164.36 619.966 166.984 616.881 170.269C613.624 173.756 611.054 177.826 609.303 182.266C607.339 187.35 606.378 192.766 606.473 198.216C606.295 202.089 606.895 205.959 608.243 209.595C609.588 213.23 611.654 216.557 614.311 219.377C617.037 222.063 620.286 224.159 623.856 225.531C627.426 226.903 631.242 227.522 635.061 227.35" fill="#0077FF"/>
<path d="M534.181 131.769H525.962C521.094 131.768 516.302 132.989 512.026 135.321C507.75 137.652 504.128 141.02 501.49 145.116C501.462 145.159 501.427 145.196 501.383 145.224C501.342 145.251 501.292 145.269 501.243 145.275C501.191 145.281 501.139 145.276 501.092 145.259C501.043 145.242 500.999 145.214 500.964 145.179C498.079 142.384 494.86 139.961 491.375 137.963C487.693 135.746 483.757 133.976 479.656 132.69C474.626 131.128 469.38 130.372 464.111 130.451C456.126 130.465 448.23 132.147 440.929 135.386C433.47 138.618 426.697 143.248 420.974 149.027C415.073 154.98 410.356 162.003 407.079 169.721C402.882 180.081 400.979 191.228 401.499 202.395C401.441 209.652 402.762 216.853 405.384 223.619C407.825 229.975 411.548 235.761 416.317 240.617C421.068 245.398 426.706 249.204 432.913 251.821C439.434 254.576 446.449 255.966 453.528 255.907C457.479 255.975 461.421 255.514 465.251 254.536C468.174 253.756 471.034 252.764 473.812 251.567C475.617 250.668 477.357 249.643 479.017 248.502C479.064 248.463 479.119 248.439 479.179 248.436C479.239 248.432 479.297 248.449 479.346 248.483C479.398 248.516 479.434 248.564 479.453 248.621C479.472 248.677 479.475 248.738 479.456 248.795C471.538 287.368 444.088 306.698 416.358 316.291C414.868 316.804 413.616 317.845 412.841 319.219C412.068 320.592 411.824 322.204 412.156 323.745C412.49 325.289 413.378 326.654 414.649 327.583C415.92 328.515 417.49 328.949 419.059 328.798C460.213 324.653 506.177 306.918 516.039 250.528C522.798 211.968 533.984 148.137 536.386 134.413C536.444 134.088 536.427 133.755 536.339 133.436C536.255 133.117 536.098 132.821 535.887 132.569C535.674 132.316 535.411 132.113 535.109 131.974C534.811 131.835 534.485 131.763 534.156 131.764L534.181 131.769ZM472.735 219.998C469.363 221.455 465.725 222.196 462.051 222.172C458.846 222.34 455.641 221.855 452.63 220.745C449.619 219.634 446.863 217.922 444.535 215.713C440.244 211.025 437.847 204.912 437.806 198.557C437.502 192.769 438.445 186.983 440.565 181.589C441.992 178.194 443.998 175.072 446.493 172.364C448.959 169.751 451.945 167.685 455.26 166.3C458.638 164.886 462.268 164.168 465.928 164.191C469.136 164.021 472.344 164.506 475.357 165.616C478.371 166.725 481.129 168.438 483.461 170.647C485.584 172.766 487.252 175.298 488.362 178.086C489.474 180.875 490 183.861 489.915 186.861C489.817 190.893 489.463 194.915 488.86 198.902L488.11 202.882C487.954 203.57 487.751 204.246 487.496 204.903C486.129 208.271 484.116 211.338 481.57 213.931C479.05 216.506 476.05 218.566 472.744 219.995" fill="#AEBD25"/>
<path d="M191.923 85.4975H203.488C206.248 85.4972 208.962 86.201 211.374 87.543C213.787 88.8849 215.818 90.8205 217.275 93.1667C218.732 95.5129 219.567 98.1919 219.701 100.951C219.835 103.71 219.265 106.458 218.043 108.935L146.135 254.662C145.947 255.04 145.657 255.358 145.297 255.581C144.938 255.804 144.524 255.923 144.102 255.923H129.342C125.592 255.923 121.969 254.561 119.147 252.09C116.326 249.619 114.497 246.207 114 242.488L102.959 160.404C102.919 160.103 102.784 159.822 102.572 159.605C102.361 159.387 102.085 159.243 101.786 159.195C101.486 159.147 101.179 159.197 100.91 159.337C100.641 159.477 100.424 159.701 100.292 159.974L54.2422 254.634C54.0573 255.017 53.7669 255.341 53.4064 255.566C53.0458 255.793 52.6292 255.911 52.2037 255.911H37.3529C33.6252 255.91 30.023 254.564 27.208 252.118C24.3931 249.672 22.5538 246.291 22.0299 242.598L0.0158894 87.3033C-0.016307 87.0766 0.000541163 86.8458 0.0653831 86.6262C0.130225 86.4063 0.241609 86.2032 0.391774 86.0304C0.54194 85.8575 0.726511 85.7196 0.934868 85.6247C1.14323 85.5298 1.36944 85.48 1.59835 85.4802H20.2053C25.2485 85.4802 30.1197 87.3168 33.9098 90.6461C37.7 93.9754 40.1503 98.5702 40.8042 103.575L51.4881 185.467C51.5221 185.733 51.6416 185.981 51.8278 186.174C52.0141 186.367 52.2577 186.495 52.522 186.538C52.7867 186.581 53.0587 186.537 53.2965 186.414C53.5343 186.29 53.7255 186.093 53.8422 185.851L101.968 86.7559C102.155 86.374 102.446 86.0521 102.806 85.827C103.167 85.6017 103.584 85.4808 104.009 85.4802H118.802C121.04 85.4802 123.2 86.2964 124.881 87.7746C126.561 89.2529 127.646 91.2928 127.933 93.5135L139.828 185.459C139.862 185.725 139.981 185.973 140.168 186.166C140.354 186.359 140.597 186.486 140.862 186.529C141.126 186.572 141.397 186.529 141.635 186.406C141.873 186.282 142.065 186.085 142.182 185.843L190.488 86.3797C190.619 86.1102 190.823 85.883 191.077 85.7239C191.331 85.5649 191.624 85.4802 191.923 85.4802" fill="#A9CB37"/>
<path d="M234.911 255.928H218.817C216.557 255.928 214.325 255.431 212.277 254.476C210.229 253.52 208.415 252.126 206.963 250.394C205.51 248.662 204.455 246.633 203.869 244.449C203.284 242.265 203.184 239.979 203.577 237.752L221.961 133.349C222.054 132.823 222.328 132.346 222.737 132.003C223.145 131.66 223.661 131.473 224.194 131.473H246.54C248.034 131.473 249.51 131.8 250.863 132.432C252.217 133.063 253.415 133.983 254.375 135.128C255.335 136.272 256.033 137.614 256.419 139.058C256.805 140.502 256.871 142.012 256.611 143.484L237.144 254.05C237.051 254.575 236.776 255.051 236.368 255.394C235.96 255.737 235.444 255.928 234.911 255.928Z" fill="#A9CB37"/>
<path d="M345.293 130.139C351.849 130.005 358.355 131.29 364.371 133.906C369.615 136.231 374.313 139.629 378.168 143.88C381.874 148.039 384.682 152.92 386.416 158.215C388.238 163.735 389.15 169.512 389.126 175.324C389.123 178.774 388.857 182.219 388.331 185.628L376.255 254.039C376.162 254.564 375.888 255.04 375.48 255.383C375.072 255.726 374.557 255.914 374.025 255.915H357.802C355.542 255.915 353.312 255.42 351.263 254.464C349.213 253.508 347.4 252.115 345.948 250.382C344.496 248.649 343.438 246.619 342.855 244.434C342.269 242.25 342.17 239.963 342.562 237.736L350.709 191.577C352.117 183.12 351.213 176.405 348.002 171.432C344.789 166.459 339.217 163.97 331.289 163.966C325.218 163.934 319.336 166.093 314.725 170.045C309.553 174.618 306.2 180.904 305.287 187.75L293.729 254.039C293.639 254.564 293.365 255.041 292.957 255.384C292.549 255.728 292.034 255.916 291.502 255.917H275.278C273.018 255.917 270.785 255.422 268.738 254.466C266.69 253.511 264.876 252.118 263.424 250.386C261.971 248.654 260.916 246.625 260.33 244.441C259.745 242.257 259.646 239.971 260.038 237.744L278.423 133.341C278.514 132.816 278.788 132.34 279.196 131.997C279.604 131.654 280.119 131.466 280.653 131.465H293.157C296.809 131.465 300.364 132.649 303.288 134.84C306.211 137.031 308.348 140.111 309.375 143.619C312.794 141.077 316.416 138.824 320.207 136.883C323.889 135.122 327.681 133.599 331.56 132.323C335.984 130.847 340.622 130.106 345.29 130.131" fill="#A9CB37"/>
<path d="M534.2 131.472H525.957C521.078 131.471 516.273 132.696 511.988 135.034C507.704 137.372 504.071 140.749 501.427 144.854C501.403 144.898 501.364 144.934 501.323 144.961C501.279 144.989 501.23 145.006 501.181 145.012C501.129 145.018 501.077 145.012 501.03 144.995C500.981 144.978 500.937 144.951 500.901 144.915C498.019 142.115 494.798 139.686 491.313 137.685C487.623 135.459 483.678 133.683 479.563 132.396C474.522 130.831 469.265 130.073 463.986 130.151C455.981 130.168 448.066 131.856 440.749 135.105C433.276 138.346 426.487 142.988 420.75 148.779C414.836 154.746 410.11 161.785 406.822 169.522C402.617 179.905 400.708 191.078 401.228 202.27C401.174 209.543 402.494 216.76 405.121 223.541C407.57 229.914 411.299 235.716 416.079 240.586C420.841 245.383 426.49 249.2 432.714 251.825C439.251 254.587 446.283 255.982 453.376 255.921C457.337 255.985 461.29 255.519 465.126 254.535C468.057 253.754 470.925 252.761 473.709 251.563C475.522 250.661 477.267 249.633 478.936 248.487C478.985 248.454 479.04 248.437 479.097 248.437C479.152 248.437 479.21 248.454 479.256 248.485C479.303 248.517 479.341 248.561 479.363 248.614C479.385 248.666 479.39 248.724 479.379 248.78C471.435 287.436 443.927 306.824 416.137 316.436C414.644 316.949 413.389 317.991 412.611 319.37C411.836 320.746 411.589 322.361 411.924 323.907C412.258 325.453 413.145 326.821 414.422 327.753C415.699 328.688 417.271 329.121 418.844 328.971C460.093 324.814 506.15 307.038 516.056 250.519C522.829 211.863 534.039 147.891 536.45 134.14C536.507 133.814 536.493 133.48 536.406 133.16C536.321 132.84 536.167 132.543 535.954 132.29C535.74 132.036 535.474 131.834 535.176 131.694C534.874 131.555 534.548 131.482 534.217 131.483L534.2 131.472ZM472.654 219.92C469.281 221.378 465.643 222.12 461.97 222.099C458.759 222.269 455.545 221.783 452.526 220.671C449.507 219.559 446.749 217.843 444.412 215.629C440.113 210.93 437.711 204.803 437.667 198.432C437.366 192.634 438.308 186.837 440.431 181.434C441.864 178.031 443.875 174.903 446.373 172.187C448.844 169.569 451.836 167.499 455.154 166.109C458.537 164.693 462.172 163.974 465.838 163.996C469.051 163.827 472.265 164.315 475.281 165.428C478.3 166.541 481.061 168.256 483.396 170.471C485.527 172.594 487.198 175.131 488.31 177.925C489.423 180.72 489.951 183.714 489.864 186.72C489.765 190.759 489.412 194.788 488.806 198.783L488.056 202.775C487.899 203.464 487.694 204.14 487.439 204.8C486.069 208.175 484.053 211.249 481.5 213.848C478.974 216.427 475.969 218.49 472.654 219.923" fill="#A9CB37"/>
<path d="M916.278 131.472H908.032C903.153 131.471 898.351 132.696 894.063 135.034C889.779 137.372 886.149 140.749 883.505 144.854C883.478 144.898 883.442 144.934 883.398 144.961C883.354 144.989 883.305 145.006 883.256 145.012C883.204 145.018 883.155 145.012 883.105 144.995C883.059 144.978 883.015 144.951 882.976 144.915C880.094 142.115 876.873 139.686 873.388 137.685C869.698 135.459 865.753 133.683 861.641 132.396C856.597 130.831 851.34 130.073 846.064 130.151C838.056 130.168 830.144 131.856 822.827 135.105C815.351 138.346 808.562 142.988 802.828 148.779C796.911 154.746 792.185 161.785 788.9 169.522C784.692 179.905 782.783 191.078 783.306 202.27C783.249 209.543 784.569 216.76 787.199 223.541C789.646 229.914 793.374 235.716 798.157 240.586C802.916 245.383 808.568 249.2 814.792 251.825C821.326 254.587 828.358 255.982 835.453 255.921C839.412 255.985 843.365 255.519 847.203 254.535C850.132 253.754 853 252.761 855.786 251.563C857.597 250.661 859.345 249.633 861.013 248.487C861.06 248.454 861.115 248.437 861.172 248.437C861.23 248.437 861.285 248.454 861.331 248.485C861.381 248.517 861.416 248.561 861.438 248.614C861.46 248.666 861.468 248.724 861.457 248.78C853.513 287.436 826.005 306.824 798.215 316.436C796.719 316.949 795.464 317.991 794.686 319.37C793.911 320.746 793.667 322.361 793.999 323.907C794.333 325.453 795.223 326.821 796.497 327.753C797.774 328.688 799.346 329.121 800.922 328.971C842.171 324.814 888.225 307.038 898.132 250.519C904.904 211.863 916.117 147.891 918.528 134.14C918.582 133.814 918.569 133.48 918.484 133.16C918.396 132.84 918.243 132.543 918.029 132.29C917.815 132.036 917.549 131.834 917.251 131.694C916.952 131.555 916.624 131.482 916.295 131.483L916.278 131.472ZM854.732 219.92C851.359 221.378 847.721 222.12 844.047 222.099C840.834 222.269 837.62 221.783 834.604 220.671C831.585 219.559 828.824 217.843 826.49 215.629C822.191 210.93 819.786 204.803 819.745 198.432C819.444 192.634 820.383 186.837 822.506 181.434C823.939 178.031 825.95 174.903 828.451 172.187C830.92 169.569 833.911 167.499 837.231 166.109C840.612 164.693 844.247 163.974 847.916 163.996C851.126 163.827 854.34 164.315 857.359 165.428C860.375 166.541 863.137 168.256 865.473 170.471C867.602 172.594 869.273 175.131 870.385 177.925C871.498 180.72 872.029 183.714 871.942 186.72C871.843 190.759 871.49 194.788 870.884 198.783L870.133 202.775C869.975 203.464 869.769 204.14 869.517 204.8C868.145 208.175 866.128 211.249 863.578 213.848C861.049 216.427 858.044 218.49 854.732 219.923" fill="#0077FF"/>
<path d="M324.228 35.839C324.228 35.839 343.975 39.5486 352.278 72.7815C356.229 88.5919 359.004 100.197 362.798 115.744C362.894 116.059 362.869 116.398 362.73 116.697C362.59 116.995 362.349 117.232 362.048 117.364C361.744 117.495 361.407 117.511 361.092 117.409C360.779 117.307 360.516 117.095 360.349 116.811C355.191 107.284 341.172 81.6547 320.439 68.1444C309.155 60.7889 294.14 53.1044 282.71 69.6824C273.908 82.4415 267.46 99.8396 263.808 111.08C263.689 111.434 263.443 111.732 263.117 111.915C262.791 112.098 262.408 112.153 262.044 112.069C261.68 111.985 261.361 111.768 261.147 111.462C260.934 111.154 260.842 110.779 260.89 110.408C262.717 97.7421 267.081 84.2655 260.032 76.3315C253.244 68.6908 233.213 71.0562 218.551 71.1028C218.257 71.1034 217.974 70.994 217.758 70.795C217.542 70.5956 217.41 70.322 217.387 70.0292C217.364 69.7362 217.453 69.4456 217.635 69.2153C217.817 68.985 218.079 68.8317 218.369 68.7871C235.111 66.2539 261.079 62.3329 269.939 56.233C274.653 52.987 290.159 41.8421 263.873 25.0776C244.54 12.7407 219.89 5.94009 208.557 2.1842C208.3 2.09283 208.085 1.91091 207.952 1.67283C207.819 1.43475 207.777 1.15638 207.834 0.88973C207.891 0.62308 208.043 0.385981 208.262 0.223086C208.48 0.0601923 208.751 -0.0181474 209.022 0.00354932C220.432 0.94938 246.965 2.66587 254.666 3.24708C269.259 4.34369 302.435 6.74059 307.914 24.0616C317.798 16.0783 329.946 13.4899 335.622 16.1382C336.564 16.4864 335.499 19.1729 335.499 19.1729C332.595 25.2551 328.795 30.868 324.228 35.8228" fill="#0077FF"/>
<path d="M1142.78 128.868C1148.97 128.816 1155.12 129.82 1160.96 131.837C1166.34 133.676 1171.33 136.516 1175.65 140.207C1179.9 143.924 1183.28 148.539 1185.53 153.719C1188 159.393 1189.24 165.528 1189.16 171.717C1189.15 175.072 1188.88 178.422 1188.36 181.736L1175.9 252.592C1175.81 253.091 1175.55 253.544 1175.16 253.87C1174.78 254.195 1174.29 254.375 1173.78 254.376H1164.08C1160.79 254.379 1157.59 253.307 1154.97 251.322C1152.35 249.338 1150.45 246.55 1149.56 243.384L1149.23 242.243C1146.44 244.846 1143.34 247.104 1140.01 248.969C1136.61 250.87 1133.03 252.438 1129.33 253.652C1125.12 255.039 1120.72 255.729 1116.29 255.694C1110.45 255.797 1104.64 254.928 1099.09 253.123C1094.51 251.625 1090.26 249.252 1086.58 246.136C1083.31 243.34 1080.7 239.851 1078.94 235.92C1077.23 232.061 1076.35 227.883 1076.37 223.662C1076.13 216.19 1078.3 208.839 1082.56 202.697C1086.99 196.742 1092.82 191.986 1099.55 188.859C1107.67 185.064 1116.3 182.487 1125.17 181.209C1135.87 179.565 1146.69 178.771 1157.51 178.835C1158.03 176.154 1157.98 173.393 1157.35 170.735C1156.73 168.076 1155.55 165.581 1153.89 163.414C1152.05 161.283 1149.75 159.613 1147.15 158.537C1144.55 157.461 1141.74 157.01 1138.94 157.219C1135.92 157.114 1132.94 157.844 1130.31 159.33C1128.18 160.573 1126.25 162.126 1124.57 163.94C1123.14 165.586 1121.93 167.409 1120.96 169.365C1120.77 169.746 1120.49 170.066 1120.13 170.286C1119.77 170.506 1119.36 170.617 1118.93 170.605L1091.63 169.464C1091.29 169.452 1090.97 169.362 1090.67 169.199C1090.38 169.037 1090.12 168.807 1089.93 168.529C1089.74 168.251 1089.62 167.932 1089.58 167.598C1089.54 167.265 1089.57 166.925 1089.68 166.608C1091.38 162.055 1093.63 157.727 1096.38 153.722C1099.7 148.871 1103.71 144.54 1108.3 140.872C1112.99 137.139 1118.24 134.179 1123.85 132.1C1129.91 129.895 1136.31 128.801 1142.75 128.87L1142.78 128.868ZM1121.67 231.437C1129.25 231.616 1136.63 229.014 1142.42 224.122C1148.06 219.451 1151.86 212.937 1153.16 205.732L1154.35 200.325C1146.73 200.239 1139.11 200.658 1131.55 201.578C1126.62 202.118 1121.78 203.361 1117.19 205.272C1114.16 206.5 1111.57 208.614 1109.75 211.338C1108.28 213.827 1107.53 216.673 1107.58 219.563C1107.59 221.129 1107.95 222.672 1108.61 224.093C1109.26 225.513 1110.22 226.778 1111.4 227.804C1114.21 230.319 1117.91 231.622 1121.67 231.426" fill="#0077FF"/>
<path d="M743.656 257.735H732.95C730.689 257.735 728.457 257.241 726.408 256.285C724.358 255.33 722.545 253.937 721.093 252.205C719.638 250.472 718.583 248.442 717.997 246.258C717.414 244.073 717.315 241.787 717.707 239.56L736.062 135.332C736.149 134.833 736.41 134.38 736.799 134.054C737.185 133.728 737.678 133.549 738.185 133.55H748.891C751.151 133.55 753.384 134.045 755.43 135C757.479 135.956 759.293 137.349 760.745 139.081C762.2 140.813 763.254 142.843 763.841 145.027C764.424 147.211 764.526 149.497 764.134 151.724L745.779 255.952C745.691 256.451 745.431 256.904 745.042 257.23C744.653 257.556 744.163 257.735 743.656 257.735ZM757.058 117.333C754.91 117.397 752.77 116.995 750.792 116.153C748.814 115.31 747.042 114.048 745.598 112.454C742.686 109.402 741.081 105.335 741.116 101.116C741.097 98.5958 741.623 96.101 742.656 93.8027C743.691 91.5048 745.212 89.4577 747.11 87.8021C750.636 84.3058 755.384 82.3204 760.348 82.2661C762.498 82.2019 764.635 82.6047 766.616 83.4463C768.594 84.2882 770.366 85.5488 771.813 87.1419C774.717 90.1971 776.325 94.2622 776.292 98.4795C776.311 101.001 775.785 103.496 774.75 105.794C773.714 108.093 772.196 110.141 770.298 111.797C766.769 115.293 762.022 117.279 757.058 117.333Z" fill="#0077FF"/>
<path d="M951.862 257.735H941.156C938.896 257.735 936.663 257.241 934.614 256.285C932.564 255.33 930.751 253.937 929.299 252.205C927.844 250.472 926.789 248.442 926.203 246.258C925.62 244.073 925.521 241.787 925.913 239.56L944.268 135.332C944.355 134.833 944.616 134.38 945.005 134.054C945.391 133.728 945.884 133.549 946.391 133.55H957.097C959.357 133.55 961.59 134.045 963.636 135C965.686 135.956 967.499 137.349 968.951 139.081C970.406 140.813 971.461 142.843 972.047 145.027C972.63 147.211 972.732 149.497 972.34 151.724L953.985 255.952C953.897 256.451 953.637 256.904 953.248 257.23C952.859 257.556 952.369 257.735 951.862 257.735ZM965.264 117.333C963.116 117.397 960.976 116.995 958.998 116.153C957.02 115.31 955.248 114.048 953.804 112.454C950.892 109.402 949.287 105.335 949.322 101.116C949.303 98.5958 949.829 96.101 950.862 93.8027C951.897 91.5048 953.418 89.4577 955.316 87.8021C958.842 84.3058 963.59 82.3204 968.554 82.2661C970.704 82.2019 972.841 82.6047 974.822 83.4463C976.8 84.2882 978.572 85.5488 980.019 87.1419C982.923 90.1971 984.531 94.2622 984.498 98.4795C984.517 101.001 983.991 103.496 982.956 105.794C981.92 108.093 980.402 110.141 978.504 111.797C974.975 115.293 970.228 117.279 965.264 117.333Z" fill="#0077FF"/>
<path d="M1029.62 209.888C1029.02 212.26 1028.97 214.736 1029.46 217.132C1029.95 219.529 1030.97 221.784 1032.45 223.731C1034.51 225.952 1037.11 227.598 1039.99 228.506C1042.88 229.413 1045.95 229.55 1048.91 228.904C1049.25 228.836 1049.61 228.853 1049.95 228.954C1050.28 229.055 1050.59 229.237 1050.84 229.484C1051.09 229.731 1051.27 230.035 1051.38 230.37C1051.48 230.704 1051.51 231.06 1051.44 231.406L1047.38 253.925C1047.31 254.328 1047.12 254.703 1046.85 255.006C1046.57 255.308 1046.21 255.524 1045.82 255.629C1042.63 256.426 1039.37 256.83 1036.09 256.83C1030.45 256.959 1024.85 255.949 1019.62 253.862C1015.15 252.019 1011.13 249.235 1007.83 245.698C1004.54 242.16 1002.04 237.953 1000.52 233.364C998.9 228.475 998.1 223.353 998.147 218.204C998.144 214.98 998.407 211.761 998.938 208.58L1007.06 162.17C1007.12 161.861 1007.1 161.545 1007.02 161.243C1006.94 160.94 1006.8 160.659 1006.6 160.418C1006.4 160.178 1006.15 159.983 1005.87 159.849C1005.58 159.714 1005.27 159.643 1004.96 159.639C1002.98 159.618 1001.03 159.167 999.245 158.318C997.456 157.469 995.875 156.242 994.607 154.721C993.339 153.201 992.413 151.423 991.898 149.511C991.383 147.598 991.29 145.597 991.621 143.645L993.44 133.042C993.528 132.541 993.788 132.086 994.177 131.758C994.566 131.431 995.059 131.251 995.569 131.25H1007.44C1010 131.251 1012.48 130.341 1014.42 128.681C1016.37 127.022 1017.66 124.723 1018.07 122.196C1018.21 121.329 1018.38 120.338 1018.56 119.196L1021.28 103.245C1021.36 102.743 1021.62 102.288 1022.01 101.959C1022.4 101.631 1022.89 101.45 1023.4 101.45H1030.63C1032.83 101.45 1034.99 101.928 1036.98 102.851C1038.97 103.774 1040.73 105.119 1042.15 106.794C1043.57 108.469 1044.6 110.432 1045.18 112.547C1045.76 114.663 1045.88 116.88 1045.51 119.043L1043.88 128.783C1043.83 129.092 1043.85 129.409 1043.93 129.711C1044.01 130.013 1044.17 130.293 1044.37 130.531C1044.57 130.77 1044.83 130.96 1045.11 131.09C1045.4 131.221 1045.71 131.287 1046.02 131.284L1067.77 131.122C1068.08 131.119 1068.39 131.185 1068.68 131.315C1068.96 131.445 1069.22 131.636 1069.42 131.874C1069.62 132.112 1069.77 132.392 1069.86 132.695C1069.94 132.997 1069.96 133.314 1069.91 133.624L1067.7 147.038L1065.98 157.826C1065.9 158.332 1065.64 158.792 1065.25 159.125C1064.86 159.458 1064.36 159.64 1063.85 159.639H1040.38C1039.88 159.64 1039.39 159.819 1039 160.144C1038.61 160.469 1038.35 160.921 1038.26 161.419L1029.62 209.888Z" fill="#0077FF"/>
<path d="M1225.28 253.282C1225.19 253.781 1224.93 254.233 1224.54 254.559C1224.15 254.885 1223.66 255.064 1223.16 255.065H1211.98C1209.77 255.065 1207.6 254.583 1205.6 253.651C1203.61 252.72 1201.84 251.363 1200.42 249.675C1199.01 247.987 1197.98 246.009 1197.41 243.88C1196.84 241.752 1196.74 239.524 1197.12 237.353L1223.6 86.7806C1223.69 86.2811 1223.95 85.8285 1224.33 85.5028C1224.72 85.1771 1225.21 84.9995 1225.72 85.0011H1236.92C1239.12 85.0008 1241.3 85.4828 1243.29 86.4127C1245.28 87.3427 1247.05 88.6983 1248.46 90.3841C1249.88 92.0702 1250.91 94.0457 1251.48 96.1723C1252.05 98.2989 1252.15 100.525 1251.77 102.694L1225.28 253.282Z" fill="#0077FF"/>
</svg>
